<svg xmlns="http://www.w3.org/2000/svg" viewBox="0 0 1500 1500"><g id="Capa_1" data-name="Capa 1"><path d="M234.24,797.77c0-56.71,65.18-108.63,131.46-108.63,40.51,0,79.92,21.36,117.48,34.61,50.45-54.5,95.74-113.42,116.37-141.77l-81,1.1c-19.52.37-26.51,7-37.93,19.15L477.29,600c11.78-15.1,21.35-27.25,31.67-36.09,5.52-4,12.15-5.52,19.14-5.52H628.27c4.79,0,5.89,1.84,4.79,6.63C604,695.4,587.39,793,587.39,812.5c0,17.68,7.74,21.73,15.84,21.73,8.47,0,17.67-5.15,33.14-19.52l3,3.32c-26.15,25-44.93,37.93-60.4,37.93-11.78,0-23.2-9.94-22.09-34.62.73-16.94,5.52-50.08,14.36-95.74-15.83,12.89-36.46,23.57-61.5,23.57a181.75,181.75,0,0,1-37.93-4.42c-57.45,60.39-118.21,114.16-170.5,114.16C258.91,858.91,234.24,832,234.24,797.77Zm82.49,45.3c46-.37,96.85-45.66,148.4-99.8C417.26,730.38,380.07,702,339.19,702c-49,0-80.65,39.77-80.65,81C258.54,821,284.69,843.07,316.73,843.07ZM534,734.43c17.3,0,29.83-7.73,38.3-15.09,7.36-36.46,16.57-79.92,28-128.89C578.56,619.91,537.31,674,489.44,726,504.54,731.12,519.27,734.43,534,734.43Z"/><path d="M671.72,812.5c0-39,37.19-88.75,77-120.42-10-.36-31.31-1.84-44.19-1.1-15.1.37-25,5.89-34.62,17.68l-3.31-2.58C678,691,688.66,682.14,699.34,673.3c5.16-4,12.15-5.52,19.15-5.52,11,0,36.46,1.1,57.08,1.1l.74,3.32c-51.19,39.77-74,93.17-74,128.15,0,24.68,11,39.41,30.93,39.41,29.09.36,64.44-47.14,85.07-88.39-4-31.3-5.16-52.66-3.32-64.44,1.48-12.52,14.73-21,26.52-21,5.52,0,7.73,2.94,7.73,7.36,0,14.73-13.26,52.66-25.41,77.34C798.4,803.3,755,855.59,711.86,856,688.66,856,671.72,840.12,671.72,812.5Z"/><path d="M845.16,812.5c0-65.18,83.6-146.56,141.78-146.56,19.15,0,28.73,8.47,28.73,21.36,0,23.93-28,49.34-138.1,118.58,2.21,17.3,12.89,29.46,34.25,29.46,12.89,0,31.3-4.05,56.71-26.89l2.94,3.32c-32.4,29.83-64.44,43.82-82.85,43.82C858.42,856,845.16,833.86,845.16,812.5Zm139.2-113.42c0-12.15-9.2-19.15-21.35-19.15-47.14,0-86.91,71.81-85.81,120.42v.37C954.9,752.11,984.36,726,984.36,699.08Z"/><path d="M394.66,1065.19c11-3.31,14.73-11.78,14.73-42V828c0-25.77-4.79-29.46-14.73-33.88v-4l40.14-17.67,3.31,2.57v248.21c0,30.2,3.31,38.67,14.73,42V1070H394.66Z"/><path d="M481.93,1065.19c11.05-3.31,14.73-11.78,14.73-42V828c0-25.77-4.78-29.46-14.73-33.88v-4l40.14-17.67,3.32,2.57v248.21c0,30.2,3.31,38.67,14.73,42V1070H481.93Z"/><path d="M698.46,1058.93V992.64c-11.41,45.3-42.34,81-78.8,81-27.25,0-51.56-16.57-51.56-48.24,0-38.3,38.67-52.66,82.49-64.81l47.87-12.89c-1.84-35.72-20.25-52.3-51.55-52.3-22.1,0-43.45,10.32-61.87,32.78l-3.31-3c21-26.14,47.87-42,79.91-42,44.56,0,65.18,24.68,65.18,66.29v73.65c0,30.2,3.32,38.67,14.73,42V1070h-32C702.15,1070,698.46,1065.93,698.46,1058.93Zm-65.18-7c39.41,0,64.82-49.71,65.18-88.38v-11L652.07,965c-27.26,7.74-56.72,19.89-56.35,50.09C595.72,1039,612.29,1051.93,633.28,1051.93Z"/><path d="M762.17,1065.19c11.42-3.31,14.73-11.78,14.73-42v-84.7c0-25.78-4.42-29.46-14.73-33.88v-4l40.51-17.68,3,2.58v31.67c21.36-17.31,49.71-33.88,78.07-33.88,36.09,0,58.18,21,58.18,64.08v75.86c0,30.2,3.32,38.67,14.73,42V1070H898.43v-4.79c11.41-3.31,14.73-11.78,14.73-42v-68.5c0-38.29-16.21-59.29-48.61-59.29-20.26,0-40.14,12.16-58.92,27.62v100.17c0,30.2,3.68,38.67,14.73,42V1070H762.17Z"/><path d="M1108.7,1058.93V992.64c-11.42,45.3-42.35,81-78.81,81-27.25,0-51.55-16.57-51.55-48.24,0-38.3,38.66-52.66,82.49-64.81l47.87-12.89c-1.84-35.72-20.25-52.3-51.56-52.3-22.09,0-43.45,10.32-61.86,32.78l-3.32-3c21-26.14,47.88-42,79.91-42,44.56,0,65.19,24.68,65.19,66.29v73.65c0,30.2,3.31,38.67,14.73,42V1070h-32C1112.38,1070,1108.7,1065.93,1108.7,1058.93Zm-65.18-7c39.4,0,64.81-49.71,65.18-88.38v-11L1062.3,965c-27.25,7.74-56.71,19.89-56.34,50.09C1006,1039,1022.53,1051.93,1043.52,1051.93Z"/><path d="M1139.1,418.88c-6.48,1.23-12.88,1.43-14.81-5.21-3.19-11,5.54-20.48,12.41-27.79,5.14-5.48,20.21-33.23,12.78-34.37-8.63-1.33-29.58,8.31-37.54,2.73-7.06-4.94-2.57-16.83.11-22.83,3.51-7.86,3.75-20.55-4.8-21.48s-9.12,5-14.58-2.27c-3-4-.29-21.57-.36-26.85a5.66,5.66,0,0,0-.65-3.13,4.71,4.71,0,0,0-3.44-1.71c-5.76-.75-11.23,2.29-16.81,3.86-13.15,3.67-13-4.27-17.19-12.87-2.73-5.61-13.12-3.07-19.31-3.82.39-6.25,3.83-13.19,0-16s-8.67-4.26-11.49-8c-2.43-3.25-2.84-7.56-2.88-11.62-.2-18.67,5-39-4.82-54.92-1.09-1.77-2.55-3.57-4.6-3.92-3-.51-5.44,2.18-7.2,4.64a177.41,177.41,0,0,0-21,38.88c-5.06,13.05-4.06,13.94-16.14,19.16-3.74,1.62-11.93,11-17.72,17.4-6.15-3.26-11.38-11.95-17.17-6.06-5.28,5.37-7.11,15.54-14.62,16.13-9.59.75-13.79-16-23.33-14.75-9.24,9.3-6.3,30.4-19.31,32-10.36,1.27-20.29-13.63-28.83-7.63-3.17,11.44-1.51,22.68-4.69,34.12-.59,2.15-4.23,11.49-6.45,11.49-.92,0-1.84-.06-2.75-.15,6.19,15.54,12.29,31.05,18.61,46.45,7.39,17.91,14.91,35.75,22.88,53.39S889.57,449,898,466.41c7.46,15.34,15.15,30.59,22.8,45.92q4.43-15.8,8.73-31.61c-2.23-4.12-4.34-8.31-6.49-12.47-4.29-8.76-8.43-17.6-12.33-26.52-7.9-17.82-15.12-35.91-22.13-54.07-6.83-18.22-13.45-36.53-19.47-55.05s-11.85-37.15-15.81-56.29l21.47,54.25c7.16,18.07,14.07,36.22,21,54.35l20.47,54.55c4.78,12.54,9.31,25.17,14.25,37.65q6-22,11.69-44c-5.4-11.89-10.15-24.07-14.4-36.41-5.47-15.75-10-31.81-13.92-48s-6.93-32.63-9.1-49.16a389.74,389.74,0,0,1-3.72-49.81l9.65,48.81c3.36,16.19,6.8,32.34,10.67,48.39s7.9,32.05,12.15,48l9.59,34.63Q950,403,956.22,376.25a85.73,85.73,0,0,1-5.78-8.45,131.16,131.16,0,0,1-7.25-15.07,177.19,177.19,0,0,1-13-65.2,161.22,161.22,0,0,1,3-33.13c-.21,5.54-.61,11-.49,16.55q-.12,8.26.45,16.48A243.2,243.2,0,0,0,946,351.69a133.83,133.83,0,0,0,6.14,15.23,81.56,81.56,0,0,0,4.4,8.18c.18-.8.38-1.59.57-2.39,4.45-19.15,8.67-38.4,13-57.61a119.58,119.58,0,0,1-12.19-33.74,116.59,116.59,0,0,1-1.44-40.11,317.86,317.86,0,0,0,5.21,39.35,296.19,296.19,0,0,0,8.81,32.78c11-48.33,23.09-96.36,42.5-141.85q-21.63,96.51-43.25,193l19-20.95c7.26-8.14,14.47-16.26,21.39-24.63s13.77-16.8,20.51-25.37l20.13-26a182.68,182.68,0,0,1-15.2,29.49A240.59,240.59,0,0,1,993,347.83a188.09,188.09,0,0,1-23.64,18.33l-4.29,19.15q-4.5,20.1-9.08,40.18c8.85-10,17.87-19.8,27-29.5,11.79-12.66,23.71-25.15,35.34-37.89s23.18-25.52,34.44-38.58,22.11-26.48,32.93-40.09a334.33,334.33,0,0,1-28.23,43.85,520.89,520.89,0,0,1-33.47,40q-17.76,19.11-36.77,36.91-15.51,14.52-31.85,28.08c-4.4,19.22-8.92,38.41-13.72,57.53q9.6-9.4,19.27-18.69l36-34.46L1033,398.38c12.06-11.42,24.15-22.83,36.65-33.92-10.15,13.28-21.07,25.89-32.37,38.15s-23,24.1-35,35.66-24.46,22.66-37.26,33.34q-12.09,10.14-24.68,19.68c-1.82,7.19-3.63,14.39-5.54,21.56q-2.09,7.8-4.24,15.56c10.6-6.5,21.17-13,31.61-19.68,14.75-9.49,29.36-19.14,43.65-29.28s28.4-20.49,42.33-31.16,27.56-21.74,41.37-32.78a391.35,391.35,0,0,1-37.55,37.43,495,495,0,0,1-41.72,32.82,499.62,499.62,0,0,1-45,28.13c-11.57,6.39-23.41,12.31-35.53,17.57-4.33,15.42-8.9,30.78-13.84,46-1.42,4.39-2.78,9.23-4.18,14.27,15.45-6.8,30.69-13.91,45.67-21.48a548.7,548.7,0,0,0,57-33.17A400.37,400.37,0,0,0,1066,496.38a345.25,345.25,0,0,0,43.71-49.58,238.76,238.76,0,0,1-39.48,53.87,315.14,315.14,0,0,1-51.62,42.84,396.42,396.42,0,0,1-58.74,32.18A420.64,420.64,0,0,1,911,594c-1.64,5.93-6.38,21.42-6.9,22.92a157.26,157.26,0,0,0,27.53,3.85c52.77,2.62,98.82-6.69,142.53-36.35a88.09,88.09,0,0,0,10.53-8.54c33.77-31.54,7.72-18.39,2.39-19.24-2.34-.37-5,.55-7-.61-4-2.25-1.33-8.37,1.64-11.89a490,490,0,0,0,49-69.12c9.29-15.85,17.89-34.32,14.59-52A5.26,5.26,0,0,0,1139.1,418.88ZM1032.81,588.22c-.36,2.25-2,4.08-3.78,5.51a23.58,23.58,0,0,1-13.45,5c-3.24.16-12.82,0-11-5.38a8.35,8.35,0,0,1,2.13-3.05c5.34-5.44,12.9-9.08,20.48-8.33,1,.1,1.25.55,2,1a12.55,12.55,0,0,1,2,.88A4.82,4.82,0,0,1,1032.81,588.22Zm72-156.18a90.14,90.14,0,0,1-7.4,11.18c-2.13,2.87-5.6,6.72-9.6,5.94-4.5-.87-1.77-7.75-.22-10.18a24.14,24.14,0,0,1,5.1-5.71A24.75,24.75,0,0,1,1096,431c1.13-.65,2.82-1,3.81-1.79,2.67-2.11,2.16-6.66,5.07-8.73a2.65,2.65,0,0,1,2.38-.37,1.65,1.65,0,0,1,.6.41C1110,422.8,1106,429.88,1104.82,432Zm-11-53.57c-6.29,6.17-13,11.88-19.82,17.41s-14,10.63-21.45,15.35A173.72,173.72,0,0,1,1029.39,424c6.3-6.28,12.91-12,19.59-17.65s13.45-11.09,20.23-16.55,13.69-10.75,20.72-15.93,14.1-10.36,21.63-15.08A174.35,174.35,0,0,1,1093.82,378.47Z"/><path d="M893.08,608.38c-.23-.13-.48-.24-.71-.37-4.32-2.51-8.37-5.18-12.39-8a237,237,0,0,1-23-18.37,232.9,232.9,0,0,1-20.44-21.12,113.3,113.3,0,0,1-9.06-11.75c-2.66-4.24-4.85-9.11-4.92-14.1,3.59,9.26,11.36,14.93,18.33,21.69,7.11,6.55,14.11,13.15,21.28,19.58s14.3,12.89,21.48,19.36c3.56,3.1,7.07,6.39,10.61,9.44.24-.76.5-1.51.71-2.25q3.38-11.65,6.73-23.3C894,574.63,887,568.63,880.54,562.3c-7.7-7.77-14.58-16.18-21.4-24.57-13.66-16.82-26.33-34.45-38.34-52.49-11.86-18.15-23-36.78-33.07-56a565.94,565.94,0,0,1-27-59q15.87,28.32,32.27,56.09c11.09,18.44,22.39,36.74,34.26,54.66s24.07,35.63,36.66,53.08c6.38,8.67,12.56,17.5,19.42,25.69A117.48,117.48,0,0,0,902,578.32q4.34-15,8.62-30a160.89,160.89,0,0,1-18.27-17.14,194.8,194.8,0,0,1-35.07-53.71,151.85,151.85,0,0,1-10-30.51c5.16,9.39,10.12,18.69,15.34,27.81s10.62,18.07,16.39,26.8,11.72,17.32,17.92,25.79c4.65,6.28,9.45,12.49,14.29,18.74q4.63-16.23,9.2-32.5c-10-14.3-19.22-29.16-27.77-44.4-9.58-17-18.25-34.49-26.29-52.26s-15.19-36-21.48-54.42c-5.5-16-10.38-32.25-14.31-48.73-14.91-2.12-28.08-14.86-28.08-14.86a6.78,6.78,0,0,0-9,6.29l-.82,57.11c-.06,4.61-2.75,9-7.11,10.52-11.42,3.91-16.83-17.38-28.06-15.69a301.7,301.7,0,0,0,20.28,144.57,52.41,52.41,0,0,0-31.07-2.35,284.26,284.26,0,0,0,60.44,65.9c25.88,20.56,53.45,38.48,84.06,48.12C891.86,611.7,892.49,610,893.08,608.38ZM820.42,387.5h.12A4.3,4.3,0,0,1,823,389a37.09,37.09,0,0,1,7.31,10.16c.86,1.79,1.27,3.63,2.1,5.41,1,2.16,1.93,4.37,2.74,6.61.55,1.52,1.06,3.06,1.51,4.62.32,1.08.81,3-1,1.78a20.66,20.66,0,0,1-6.29-7.42c-1.6-2.87-2.89-5.9-4.63-8.67-1.22-1.93-2.65-3.73-3.82-5.69C820.07,394.44,816.7,387.31,820.42,387.5Z"/></g></svg>