<svg xmlns="http://www.w3.org/2000/svg" viewBox="0 0 1500 1500"><g id="Capa_1" data-name="Capa 1"><path d="M130.86,785.21c0-45.16,51.9-86.51,104.68-86.51,32.25,0,63.63,17,93.54,27.57,40.17-43.4,76.24-90.32,92.66-112.9l-64.51.88c-15.54.3-21.12,5.57-30.2,15.25l-2.64-1.76c9.38-12,17-21.7,25.21-28.73,4.4-3.23,9.68-4.4,15.25-4.4h79.76c3.81,0,4.69,1.46,3.81,5.28-23.16,103.8-36.36,181.5-36.36,197,0,14.08,6.16,17.3,12.61,17.3,6.74,0,14.07-4.1,26.39-15.54l2.35,2.64c-20.82,19.94-35.78,30.21-48.09,30.21-9.39,0-18.48-7.92-17.6-27.57.59-13.49,4.4-39.88,11.44-76.24-12.61,10.27-29,18.77-49,18.77A144.41,144.41,0,0,1,320,743c-45.75,48.09-94.13,90.9-135.77,90.9C150.5,833.88,130.86,812.48,130.86,785.21Zm65.68,36.06c36.65-.29,77.12-36.36,118.17-79.46C276.59,731.54,247,709,214.43,709c-39,0-64.22,31.66-64.22,64.51C150.21,803.68,171,821.27,196.54,821.27Zm173-86.5c13.78,0,23.75-6.16,30.5-12,5.86-29,13.19-63.63,22.28-102.63C405,643.58,372.18,686.68,334.06,728,346.08,732.13,357.81,734.77,369.54,734.77Z"/><path d="M479.21,796.93c0-31.08,29.61-70.66,61.28-95.88-7.92-.29-24.92-1.47-35.19-.88-12,.29-19.93,4.69-27.56,14.07l-2.64-2c9.09-12,17.6-19.06,26.1-26.1,4.1-3.22,9.68-4.39,15.25-4.39,8.79,0,29,.88,45.45.88l.58,2.63c-40.75,31.67-58.93,74.19-58.93,102,0,19.64,8.79,31.37,24.63,31.37,23.16.3,51.31-37.53,67.73-70.37-3.22-24.93-4.1-41.93-2.64-51.32,1.18-10,11.73-16.71,21.12-16.71,4.39,0,6.15,2.35,6.15,5.86,0,11.73-10.55,41.94-20.23,61.58-20.23,41.93-54.83,83.57-89.14,83.87C492.7,831.54,479.21,818.93,479.21,796.93Z"/><path d="M617.31,796.93c0-51.9,66.57-116.7,112.9-116.7,15.24,0,22.87,6.74,22.87,17,0,19.06-22.29,39.29-110,94.42,1.76,13.78,10.26,23.45,27.27,23.45,10.26,0,24.92-3.22,45.15-21.4l2.35,2.64c-25.8,23.75-51.31,34.89-66,34.89C627.87,831.54,617.31,813.94,617.31,796.93Zm110.84-90.31c0-9.68-7.33-15.25-17-15.25-37.54,0-69.21,57.18-68.33,95.89v.29C704.7,748.84,728.15,728,728.15,706.62Z"/><path d="M765.1,825.38c8.79-2.64,11.72-9.39,11.72-33.43V636.54c0-20.53-3.81-23.46-11.72-27v-3.22l32-14.08,2.64,2V792c0,24,2.64,30.79,11.73,33.43v3.81H765.1Z"/><path d="M834.59,825.38c8.8-2.64,11.73-9.39,11.73-33.43V636.54c0-20.53-3.81-23.46-11.73-27v-3.22l32-14.08,2.64,2V792c0,24,2.64,30.79,11.73,33.43v3.81H834.59Z"/><path d="M1007,820.39V767.61c-9.09,36.07-33.72,64.51-62.75,64.51-21.7,0-41-13.19-41-38.41,0-30.5,30.78-41.93,65.68-51.61L1007,731.84c-1.47-28.45-16.13-41.64-41-41.64-17.6,0-34.6,8.21-49.27,26.1L914.05,714c16.72-20.82,38.12-33.43,63.64-33.43,35.48,0,51.9,19.65,51.9,52.78V792c0,24,2.64,30.79,11.73,33.43v3.81H1015.8C1009.94,829.19,1007,826,1007,820.39Zm-51.9-5.57c31.37,0,51.6-39.58,51.9-70.37v-8.8l-37,10c-21.7,6.16-45.16,15.83-44.86,39.88C925.2,804.56,938.39,814.82,955.11,814.82Z"/><path d="M1057.74,825.38c9.09-2.64,11.72-9.39,11.72-33.43V724.51c0-20.53-3.51-23.46-11.72-27V694.3L1090,680.23l2.35,2V707.5c17-13.78,39.58-27,62.16-27,28.74,0,46.33,16.72,46.33,51V792c0,24,2.64,30.79,11.73,33.43v3.81h-46.33v-3.81C1175.32,822.74,1178,816,1178,792V737.41c0-30.5-12.9-47.21-38.71-47.21-16.12,0-32,9.68-46.91,22V792c0,24,2.93,30.79,11.73,33.43v3.81h-46.33Z"/><path d="M1333.66,820.39V767.61c-9.09,36.07-33.72,64.51-62.75,64.51-21.7,0-41.05-13.19-41.05-38.41,0-30.5,30.79-41.93,65.68-51.61l38.12-10.26c-1.46-28.45-16.13-41.64-41.05-41.64-17.59,0-34.6,8.21-49.26,26.1l-2.64-2.35c16.71-20.82,38.12-33.43,63.63-33.43,35.48,0,51.9,19.65,51.9,52.78V792c0,24,2.64,30.79,11.73,33.43v3.81h-25.51C1336.59,829.19,1333.66,826,1333.66,820.39Zm-51.9-5.57c31.38,0,51.61-39.58,51.9-70.37v-8.8l-36.94,10c-21.7,6.16-45.16,15.83-44.87,39.88C1251.85,804.56,1265.05,814.82,1281.76,814.82Z"/><path d="M402.09,919.06V875.24H417a12,12,0,0,1,6.32,1.7,12.75,12.75,0,0,1,4.48,4.6,13.59,13.59,0,0,1,.34,12.35,12.2,12.2,0,0,1-3.58,4.36,12.44,12.44,0,0,1-5.12,2.28l10.71,18.53H425l-10.55-18.19h-8v18.19Zm4.38-22.57h10.11a8.2,8.2,0,0,0,4.25-1.14,8.79,8.79,0,0,0,0-15.06,8.2,8.2,0,0,0-4.25-1.14H406.47Z"/><path d="M463.29,919.87a14.59,14.59,0,0,1-7.88-2.22,16.65,16.65,0,0,1-7.78-14.24,17,17,0,0,1,4.59-11.69,15.58,15.58,0,0,1,5-3.55,15,15,0,0,1,14,.93,16.42,16.42,0,0,1,5.66,6,17.37,17.37,0,0,1,.9,14.71,16.93,16.93,0,0,1-3.37,5.25,15.65,15.65,0,0,1-5,3.55A14.44,14.44,0,0,1,463.29,919.87Zm0-4.38a10.29,10.29,0,0,0,5.74-1.67,12.13,12.13,0,0,0,4-4.43,12.41,12.41,0,0,0,1.48-6,12.54,12.54,0,0,0-1.5-6.06,12.09,12.09,0,0,0-4.05-4.43,10.67,10.67,0,0,0-11.46,0,12.14,12.14,0,0,0-4,4.43,12.53,12.53,0,0,0-1.48,6,12.35,12.35,0,0,0,1.53,6.12,11.83,11.83,0,0,0,4.1,4.35A10.34,10.34,0,0,0,463.29,915.49Z"/><path d="M501.47,934.71h-4.38v-47h4.38v5.85a13.37,13.37,0,0,1,4.45-4.82,12,12,0,0,1,6.7-1.85,16,16,0,0,1,6.4,1.29,16.41,16.41,0,0,1,5.24,3.55A17,17,0,0,1,527.8,897a16.1,16.1,0,0,1,1.28,6.39,16.32,16.32,0,0,1-1.28,6.42,16.85,16.85,0,0,1-3.54,5.27,16.41,16.41,0,0,1-5.24,3.55,16,16,0,0,1-6.4,1.29,12,12,0,0,1-6.7-1.85,13.37,13.37,0,0,1-4.45-4.82Zm11.12-43.51a10,10,0,0,0-5.72,1.64,11,11,0,0,0-3.74,4.4,15.14,15.14,0,0,0,0,12.3,10.81,10.81,0,0,0,3.72,4.45,9.9,9.9,0,0,0,5.75,1.66,11.45,11.45,0,0,0,6-1.63,12.45,12.45,0,0,0,4.4-4.4,12.38,12.38,0,0,0,0-12.33,12.64,12.64,0,0,0-4.35-4.43A11.42,11.42,0,0,0,512.59,891.2Z"/><path d="M573,887.76h4.38v31.3H573l-.16-5.82a12.57,12.57,0,0,1-4.29,4.8,11.57,11.57,0,0,1-6.57,1.83,16.19,16.19,0,0,1-6.45-1.29,17,17,0,0,1-5.29-3.59,16.69,16.69,0,0,1-3.57-5.29,16.32,16.32,0,0,1-1.28-6.45,15.93,15.93,0,0,1,1.27-6.35,16.39,16.39,0,0,1,8.7-8.75,15.82,15.82,0,0,1,6.34-1.27,12.3,12.3,0,0,1,6.82,1.87,13.82,13.82,0,0,1,4.63,4.86Zm-11.11,27.86a10,10,0,0,0,5.76-1.65,10.66,10.66,0,0,0,3.7-4.43,15.24,15.24,0,0,0,0-12.34,10.71,10.71,0,0,0-3.73-4.4,9.92,9.92,0,0,0-5.72-1.63,11.57,11.57,0,0,0-6.06,1.64,12.23,12.23,0,0,0-4.35,4.43,12.07,12.07,0,0,0-1.61,6.17,11.84,11.84,0,0,0,1.65,6.18,12.53,12.53,0,0,0,4.4,4.4A11.45,11.45,0,0,0,561.86,915.62Z"/><path d="M645.12,887.76h4.63l-17.12,47H628l5.7-15.65-11.24-31.3h4.79L635.85,913Z"/><path d="M721.81,887.76h4.38v31.3h-4.38l-.16-5.82a12.57,12.57,0,0,1-4.29,4.8,11.59,11.59,0,0,1-6.57,1.83,16.15,16.15,0,0,1-6.45-1.29,17,17,0,0,1-5.29-3.59,16.69,16.69,0,0,1-3.57-5.29,16.32,16.32,0,0,1-1.28-6.45,15.93,15.93,0,0,1,1.27-6.35,16.39,16.39,0,0,1,8.7-8.75,15.82,15.82,0,0,1,6.34-1.27,12.33,12.33,0,0,1,6.82,1.87,13.82,13.82,0,0,1,4.63,4.86Zm-11.12,27.86a9.92,9.92,0,0,0,5.76-1.65,10.61,10.61,0,0,0,3.71-4.43,15.24,15.24,0,0,0,0-12.34,10.71,10.71,0,0,0-3.73-4.4,9.93,9.93,0,0,0-5.73-1.63,11.56,11.56,0,0,0-6.05,1.64,12.23,12.23,0,0,0-4.35,4.43,12.07,12.07,0,0,0-1.62,6.17,11.84,11.84,0,0,0,1.66,6.18,12.45,12.45,0,0,0,4.4,4.4A11.42,11.42,0,0,0,710.69,915.62Z"/><path d="M767.32,911.2l3.91,2.13a15.87,15.87,0,0,1-5.4,4.76,15,15,0,0,1-15-.44,16.59,16.59,0,0,1-7.78-14.24,16.83,16.83,0,0,1,4.59-11.69,15.58,15.58,0,0,1,5-3.55,14.93,14.93,0,0,1,13.16.5,15.75,15.75,0,0,1,5.4,4.79l-3.91,2.09a11.25,11.25,0,0,0-3.91-3.17,10.48,10.48,0,0,0-4.67-1.12,10.23,10.23,0,0,0-5.73,1.68,12,12,0,0,0-4,4.43,12.54,12.54,0,0,0-1.49,6,12.31,12.31,0,0,0,1.52,6,11.94,11.94,0,0,0,4.09,4.4,10.33,10.33,0,0,0,5.66,1.64,10.09,10.09,0,0,0,4.82-1.19A11.4,11.4,0,0,0,767.32,911.2Z"/><path d="M811.74,911.2l3.91,2.13a15.87,15.87,0,0,1-5.4,4.76,15,15,0,0,1-15-.44,16.59,16.59,0,0,1-7.78-14.24,16.88,16.88,0,0,1,1.22-6.43,16.66,16.66,0,0,1,3.36-5.26,15.62,15.62,0,0,1,5-3.55,14.93,14.93,0,0,1,13.16.5,15.75,15.75,0,0,1,5.4,4.79l-3.91,2.09a11.19,11.19,0,0,0-3.92-3.17,10.44,10.44,0,0,0-4.66-1.12,10.23,10.23,0,0,0-5.73,1.68,12,12,0,0,0-4,4.43,12.54,12.54,0,0,0-1.49,6,12.31,12.31,0,0,0,1.52,6,12,12,0,0,0,4.08,4.4,10.34,10.34,0,0,0,5.67,1.64A10.09,10.09,0,0,0,808,914.3,11.6,11.6,0,0,0,811.74,911.2Z"/><path d="M847.58,919.87a14.59,14.59,0,0,1-7.88-2.22,16.65,16.65,0,0,1-7.78-14.24,17,17,0,0,1,4.59-11.69,15.58,15.58,0,0,1,5-3.55,14.58,14.58,0,0,1,6.08-1.29A14.77,14.77,0,0,1,859,892.11a16.81,16.81,0,0,1,3.19,5.79,19.75,19.75,0,0,1,.89,7.17H836.56a12.56,12.56,0,0,0,1.89,5.32,11.28,11.28,0,0,0,3.88,3.71,10.55,10.55,0,0,0,5.25,1.39,10.17,10.17,0,0,0,5.65-1.63,11.86,11.86,0,0,0,4-4.47l4.44,1a16.35,16.35,0,0,1-5.66,6.81A14.49,14.49,0,0,1,847.58,919.87Zm-11.15-18.34h22.26a11.45,11.45,0,0,0-1.77-5.34,11.94,11.94,0,0,0-4-3.88,10.65,10.65,0,0,0-10.68,0,11.6,11.6,0,0,0-3.94,3.85A12.77,12.77,0,0,0,836.43,901.53Z"/><path d="M891,919.66a16.27,16.27,0,0,1-5-.94,14.2,14.2,0,0,1-4.26-2.38,8.7,8.7,0,0,1-2.59-3.41l3.78-1.63a5.52,5.52,0,0,0,1.87,2.24,11.32,11.32,0,0,0,3.11,1.62,10.46,10.46,0,0,0,3.48.61,9.91,9.91,0,0,0,3.56-.62,6.79,6.79,0,0,0,2.71-1.8,4,4,0,0,0,1-2.77,3.42,3.42,0,0,0-1.13-2.71,8.28,8.28,0,0,0-2.85-1.57c-1.14-.38-2.32-.75-3.53-1.11a43.84,43.84,0,0,1-5.86-2,10.4,10.4,0,0,1-4-2.8,6.63,6.63,0,0,1-1.42-4.4,7.84,7.84,0,0,1,1.61-4.93,10.62,10.62,0,0,1,4.23-3.22,13.81,13.81,0,0,1,5.59-1.15,14.78,14.78,0,0,1,7,1.66,10.25,10.25,0,0,1,4.55,4.42l-3.53,2.09a5.73,5.73,0,0,0-1.79-2.22,9.77,9.77,0,0,0-2.77-1.47,10.33,10.33,0,0,0-3.14-.56,10.54,10.54,0,0,0-3.73.58,6.37,6.37,0,0,0-2.77,1.8,4.23,4.23,0,0,0-1,2.91,3.26,3.26,0,0,0,1,2.61,7.51,7.51,0,0,0,2.8,1.44l4,1.27a45.43,45.43,0,0,1,5.35,2.06,12.34,12.34,0,0,1,4,2.88,6.2,6.2,0,0,1,1.5,4.35,7.59,7.59,0,0,1-1.69,4.92,10.82,10.82,0,0,1-4.38,3.21A13.9,13.9,0,0,1,891,919.66Z"/><path d="M934.47,919.87a14.53,14.53,0,0,1-7.87-2.22,16.59,16.59,0,0,1-7.78-14.24,16.88,16.88,0,0,1,4.58-11.69,15.62,15.62,0,0,1,5-3.55,15,15,0,0,1,13.94.93,16.66,16.66,0,0,1,7.78,14.31A16.78,16.78,0,0,1,945.53,915a15.61,15.61,0,0,1-5,3.55A14.52,14.52,0,0,1,934.47,919.87Zm0-4.38a10.27,10.27,0,0,0,5.74-1.67,12.13,12.13,0,0,0,4-4.43,12.83,12.83,0,0,0,0-12,12.09,12.09,0,0,0-4.05-4.43,10.67,10.67,0,0,0-11.46,0,12,12,0,0,0-4,4.43,12.54,12.54,0,0,0-1.49,6,12.35,12.35,0,0,0,1.53,6.12,11.91,11.91,0,0,0,4.1,4.35A10.37,10.37,0,0,0,934.47,915.49Z"/><path d="M968.27,919.06v-31.3h4.39v4.32a11.92,11.92,0,0,1,4.32-3.79,12.15,12.15,0,0,1,5.79-1.41,13.08,13.08,0,0,1,3.5.47l-1.78,4.35a8.7,8.7,0,0,0-2.57-.4,8.91,8.91,0,0,0-4.65,1.25,9.46,9.46,0,0,0-3.36,3.35,8.87,8.87,0,0,0-1.25,4.66v18.5Z"/><path d="M1005.4,882.28a2.5,2.5,0,0,1-1.8-.7,2.49,2.49,0,0,1,0-3.54,2.51,2.51,0,0,1,1.8-.71,2.47,2.47,0,0,1,1.77.71,2.35,2.35,0,0,1,.73,1.77,2.37,2.37,0,0,1-.72,1.77A2.44,2.44,0,0,1,1005.4,882.28Zm-2.22,5.48h4.38v31.3h-4.38Z"/><path d="M1041.36,919.87a14.55,14.55,0,0,1-7.87-2.22,16.65,16.65,0,0,1-7.78-14.24,16.83,16.83,0,0,1,4.59-11.69,15.58,15.58,0,0,1,5-3.55,15,15,0,0,1,14,.93,17,17,0,0,1,3.19,25.94,15.65,15.65,0,0,1-5,3.55A14.52,14.52,0,0,1,1041.36,919.87Zm0-4.38a10.3,10.3,0,0,0,5.75-1.67,12.22,12.22,0,0,0,4-4.43,12.41,12.41,0,0,0,1.48-6,12.54,12.54,0,0,0-1.5-6.06,12.09,12.09,0,0,0-4.05-4.43,10.34,10.34,0,0,0-5.72-1.66,10.19,10.19,0,0,0-5.74,1.68,12.06,12.06,0,0,0-4,4.43,12.54,12.54,0,0,0-1.49,6,12.36,12.36,0,0,0,1.54,6.12,11.83,11.83,0,0,0,4.1,4.35A10.33,10.33,0,0,0,1041.36,915.49Z"/><path d="M1084.84,919.66a16.27,16.27,0,0,1-5-.94,14.27,14.27,0,0,1-4.25-2.38,8.73,8.73,0,0,1-2.6-3.41l3.79-1.63a5.41,5.41,0,0,0,1.86,2.24,11.46,11.46,0,0,0,3.11,1.62,10.46,10.46,0,0,0,3.48.61,10,10,0,0,0,3.57-.62,6.82,6.82,0,0,0,2.7-1.8,4,4,0,0,0,1-2.77,3.42,3.42,0,0,0-1.12-2.71,8.47,8.47,0,0,0-2.85-1.57q-1.72-.57-3.54-1.11a43.67,43.67,0,0,1-5.85-2,10.4,10.4,0,0,1-4-2.8,6.63,6.63,0,0,1-1.43-4.4,7.84,7.84,0,0,1,1.61-4.93,10.62,10.62,0,0,1,4.23-3.22,13.81,13.81,0,0,1,5.59-1.15,14.78,14.78,0,0,1,7,1.66,10.33,10.33,0,0,1,4.56,4.42l-3.54,2.09a5.79,5.79,0,0,0-1.78-2.22,10,10,0,0,0-2.77-1.47,10.61,10.61,0,0,0-6.88,0A6.43,6.43,0,0,0,1079,893a4.22,4.22,0,0,0-1,2.91,3.26,3.26,0,0,0,1,2.61,7.59,7.59,0,0,0,2.8,1.44l4,1.27a45.43,45.43,0,0,1,5.35,2.06,12.34,12.34,0,0,1,4,2.88,6.2,6.2,0,0,1,1.5,4.35,7.59,7.59,0,0,1-1.69,4.92,10.69,10.69,0,0,1-4.38,3.21A13.84,13.84,0,0,1,1084.84,919.66Z"/></g></svg>