<?xml version="1.0" encoding="utf-8"?>
<!-- Generator: Adobe Illustrator 27.9.0, SVG Export Plug-In . SVG Version: 6.00 Build 0)  -->
<svg version="1.1" id="Capa_1" xmlns="http://www.w3.org/2000/svg" xmlns:xlink="http://www.w3.org/1999/xlink" x="0px" y="0px"
	 viewBox="0 0 504.89 114.67" style="enable-background:new 0 0 504.89 114.67;" xml:space="preserve">
<g>
	<g>
		<path d="M52.13,14.92h-18.6L7.97,103.98h2.69l8.07-28.14h0.01c0.17-0.92,0.44-1.77,0.84-2.6l15.43-53.43l16.49,53.36
			c0.4,0.85,0.66,1.73,0.82,2.67h0.06l8.69,28.14h18.48L52.13,14.92z"/>
		<path d="M135.76,30.33c1.1,0,3.66,0,6.11,1.72c2.32,1.71,2.08,3.66,2.08,4.16c0,1.22-0.49,2.57-1.47,4.16l-33.16,63.62
			l-35.48-63.5h20.43l23.24,41.84l18.84-35.11c0.37-0.73,0.62-1.47,0.62-2.08c0-0.37,0.12-1.34-1.11-2.44
			c-1.21-0.98-3.3-1.48-5.62-1.84c-1.83-0.37-4.04-0.49-6.36-0.49c-0.97,0-1.96,0-3.06,0.13C125.12,32.29,132.21,30.33,135.76,30.33
			z"/>
		<path d="M183.66,92.11c2.21,0.13,3.67,0.25,4.53,0.25c5.38,0,11.49-1.48,16.27-4.9c-6.24,12.6-16.03,17.74-29.24,17.74
			c-17.62,0-32.3-15.42-32.3-33.04c0-18.59,13.95-33.28,31.69-33.28c10.28,0,20.68,9.18,20.68,18.97
			c-0.37,15.04-19.57,22.39-30.47,23.36C170.81,88.56,179.13,91.74,183.66,92.11z M162.38,78.04h0.12v0.13h0.13v0.13l0.13,0.12v0.13
			h0.12v0.13l0.13,0.12l0.13,0.13v0.13h0.12v0.12l0.13,0.13v0.13h0.13v0.12h0.13v0.13c0.37,0.62,0.85,1.1,1.21,1.59
			c8.94-6.85,10.65-16.76,10.65-22.02c0-1.96-0.12-5.99-1.83-10.27s-4.53-6.61-7.34-6.61h-0.49c-2.45,0.24-4.41,1.58-5.87,4.16
			c-1.59,2.56-2.45,4.89-2.57,7.21c-0.24,2.32-0.37,3.91-0.37,5.02c0,5.26,0.98,12.48,5.39,19.21V78.04z"/>
		<path d="M231.69,103.98h-17.86V20.91c3.55,0,7.96-1.96,11.5-3.79c2.07-1.1,4.28-2.45,6.35-3.79V103.98z"/>
		<path d="M264.5,103.98h-17.86V20.91c3.55,0,7.96-1.96,11.5-3.79c2.07-1.1,4.28-2.45,6.35-3.79V103.98z"/>
		<path d="M316.17,52.85c0-11.63-4.52-12-6-12c-1.83,0-4.65,0.98-8.2,4.17c-3.55,3.17-7.09,7.83-9.9,12.72l-9.55-8.93
			c6-5.87,14.44-9.05,19.33-9.55c2.45-0.12,4.16-0.24,5.26-0.24c5.39,0,12,1.1,17.62,4.89c5.63,3.8,9.31,9.42,9.31,16.77v43.31
			h-17.87v-7.46c-2.82,5.26-9.66,9.05-18.48,9.18h-0.73c-12.72,0-21.41-8.69-21.41-19.94v-1.22c0.61-12.11,9.66-22.26,21.53-23.86
			c1.34-0.25,2.82-0.37,4.28-0.37c3.42,0,9.05,0.73,14.8,3.06V52.85z M316.17,75.59c-3.42-4.28-8.69-7.7-13.83-9.78
			c-5.13-1.97-7.83-1.97-8.68-1.97c-1.72,0-3.07,0.38-4.17,1.11c-2.82,1.83-2.82,5.26-2.82,6.85c0,2.57,0.62,6.36,3.31,11.25
			c1.35,2.57,2.94,4.77,5.01,6.61c5.14,4.65,11.63,6.24,15.42,6.24c0.97,0,3.3,0.12,5.75-1.35V75.59z"/>
		<path d="M364.44,103.98h-17.86V46.36c3.55,0,7.95-1.96,11.49-3.79c2.08-1.1,4.28-2.45,6.36-3.79v15.17
			c2.32-8.2,12.6-14.69,22.26-15.05h0.73c9.42,0,17.62,5.76,17.62,19.09v46h-17.73V60.79c0-3.79-0.98-6.48-3.06-8.07
			c-2.08-1.59-3.8-2.32-5.14-2.45h-2.21c-5.01,0-10.65,2.57-12.48,5.87V103.98z"/>
		<path d="M455.53,52.85c0-11.63-4.52-12-5.99-12c-1.84,0-4.66,0.98-8.21,4.17c-3.54,3.17-7.09,7.83-9.9,12.72l-9.55-8.93
			c6-5.87,14.44-9.05,19.33-9.55c2.44-0.12,4.16-0.24,5.26-0.24c5.39,0,12,1.1,17.62,4.89c5.63,3.8,9.31,9.42,9.31,16.77v43.31
			h-17.87v-7.46c-2.82,5.26-9.66,9.05-18.48,9.18h-0.73c-12.72,0-21.41-8.69-21.41-19.94v-1.22c0.61-12.11,9.66-22.26,21.53-23.86
			c1.35-0.25,2.82-0.37,4.28-0.37c3.42,0,9.05,0.73,14.8,3.06V52.85z M455.53,75.59c-3.42-4.28-8.69-7.7-13.82-9.78
			c-5.14-1.97-7.83-1.97-8.69-1.97c-1.72,0-3.06,0.38-4.17,1.11c-2.81,1.83-2.81,5.26-2.81,6.85c0,2.57,0.61,6.36,3.3,11.25
			c1.35,2.57,2.94,4.77,5.01,6.61c5.14,4.65,11.63,6.24,15.42,6.24c0.97,0,3.3,0.12,5.75-1.35V75.59z"/>
	</g>
	<path d="M19.13,102.94"/>
	<polygon points="18.61,93.31 61.06,93.31 59.84,89.41 23.43,89.41 	"/>
</g>
<circle cx="488.13" cy="13.8" r="9.63"/>
</svg>
