<svg xmlns="http://www.w3.org/2000/svg" viewBox="0 0 1500 1500"><defs><style>.cls-1{fill:#ffd5c0;}</style></defs><g id="Capa_1" data-name="Capa 1"><path class="cls-1" d="M131.44,923.85c0-45.16,51.9-86.5,104.68-86.5,32.26,0,63.63,17,93.54,27.56C369.84,821.52,405.9,774.6,422.32,752l-64.51.88c-15.54.29-21.11,5.57-30.2,15.25L325,766.39c9.39-12,17-21.7,25.22-28.74,4.4-3.22,9.68-4.4,15.25-4.4H445.2c3.81,0,4.69,1.47,3.81,5.28C425.84,842.33,412.65,920,412.65,935.58c0,14.08,6.16,17.3,12.61,17.3,6.74,0,14.07-4.1,26.39-15.54L454,940c-20.82,19.94-35.77,30.2-48.09,30.2-9.38,0-18.47-7.91-17.59-27.56.59-13.49,4.4-39.88,11.44-76.24-12.61,10.26-29,18.77-49,18.77a144.58,144.58,0,0,1-30.21-3.52c-45.74,48.09-94.12,90.9-135.76,90.9C151.09,972.53,131.44,951.12,131.44,923.85Zm65.68,36.07c36.66-.29,77.12-36.36,118.18-79.47-38.12-10.26-67.74-32.84-100.29-32.84-39,0-64.21,31.67-64.21,64.51C150.8,942.33,171.61,959.92,197.12,959.92Zm173-86.5c13.78,0,23.75-6.16,30.5-12,5.86-29,13.19-63.64,22.28-102.63-17.3,23.45-50.14,66.56-88.26,107.9C346.67,870.78,358.4,873.42,370.13,873.42Z"/><path class="cls-1" d="M479.79,935.58c0-31.08,29.62-70.67,61.29-95.88-7.92-.3-24.93-1.47-35.19-.88-12,.29-19.94,4.69-27.56,14.07l-2.64-2c9.09-12,17.59-19.06,26.1-26.1,4.1-3.22,9.67-4.4,15.24-4.4,8.8,0,29,.88,45.45.88l.59,2.64c-40.76,31.67-58.94,74.19-58.94,102,0,19.65,8.8,31.38,24.63,31.38,23.17.29,51.32-37.53,67.74-70.37-3.23-24.93-4.11-41.94-2.64-51.32,1.17-10,11.73-16.71,21.11-16.71,4.4,0,6.16,2.34,6.16,5.86,0,11.73-10.56,41.93-20.23,61.58-20.24,41.93-54.84,83.57-89.14,83.86C493.28,970.18,479.79,957.57,479.79,935.58Z"/><path class="cls-1" d="M617.9,935.58c0-51.9,66.56-116.7,112.89-116.7,15.25,0,22.87,6.74,22.87,17,0,19.06-22.28,39.3-110,94.42,1.76,13.78,10.27,23.46,27.27,23.46,10.27,0,24.93-3.22,45.16-21.4l2.35,2.63c-25.81,23.76-51.32,34.9-66,34.9C628.46,970.18,617.9,952.59,617.9,935.58Zm110.84-90.31c0-9.68-7.33-15.25-17-15.25-37.53,0-69.2,57.18-68.32,95.88v.3C705.28,887.49,728.74,866.67,728.74,845.27Z"/><path class="cls-1" d="M765.68,964c8.8-2.63,11.73-9.38,11.73-33.42V775.19c0-20.53-3.81-23.46-11.73-27V745l32-14.07,2.64,2.05V930.6c0,24,2.64,30.79,11.73,33.42v3.82H765.68Z"/><path class="cls-1" d="M835.18,964c8.79-2.63,11.73-9.38,11.73-33.42V775.19c0-20.53-3.82-23.46-11.73-27V745l32-14.07,2.64,2.05V930.6c0,24,2.64,30.79,11.73,33.42v3.82H835.18Z"/><path class="cls-1" d="M1007.59,959V906.26c-9.09,36.07-33.72,64.51-62.75,64.51-21.7,0-41.05-13.2-41.05-38.41,0-30.5,30.79-41.94,65.68-51.61l38.12-10.27c-1.46-28.44-16.12-41.63-41.05-41.63-17.59,0-34.6,8.21-49.26,26.09l-2.64-2.34c16.72-20.82,38.12-33.43,63.63-33.43,35.48,0,51.9,19.65,51.9,52.78V930.6c0,24,2.64,30.79,11.73,33.42v3.82h-25.51C1010.53,967.84,1007.59,964.61,1007.59,959Zm-51.9-5.57c31.38,0,51.61-39.59,51.9-70.38V874.3l-36.94,10c-21.7,6.15-45.16,15.83-44.87,39.88C925.78,943.21,939,953.47,955.69,953.47Z"/><path class="cls-1" d="M1058.32,964c9.09-2.63,11.73-9.38,11.73-33.42V863.15c0-20.52-3.52-23.45-11.73-27V833l32.26-14.07,2.34,2v25.22c17-13.79,39.59-27,62.17-27,28.73,0,46.33,16.71,46.33,51V930.6c0,24,2.64,30.79,11.73,33.42v3.82h-46.33V964c9.09-2.63,11.73-9.38,11.73-33.42V876.06c0-30.5-12.91-47.21-38.71-47.21-16.13,0-32,9.67-46.92,22V930.6c0,24,2.94,30.79,11.73,33.42v3.82h-46.33Z"/><path class="cls-1" d="M1334.25,959V906.26c-9.09,36.07-33.72,64.51-62.75,64.51-21.7,0-41-13.2-41-38.41,0-30.5,30.78-41.94,65.68-51.61l38.12-10.27c-1.47-28.44-16.13-41.63-41-41.63-17.6,0-34.6,8.21-49.27,26.09l-2.63-2.34c16.71-20.82,38.11-33.43,63.63-33.43,35.48,0,51.9,19.65,51.9,52.78V930.6c0,24,2.64,30.79,11.73,33.42v3.82h-25.51C1337.18,967.84,1334.25,964.61,1334.25,959Zm-51.9-5.57c31.37,0,51.61-39.59,51.9-70.38V874.3l-37,10c-21.7,6.15-45.16,15.83-44.86,39.88C1252.44,943.21,1265.63,953.47,1282.35,953.47Z"/><path class="cls-1" d="M402.68,1057.71v-43.82h14.87a12,12,0,0,1,6.32,1.7,12.67,12.67,0,0,1,4.48,4.6,13.67,13.67,0,0,1,.34,12.35,12.29,12.29,0,0,1-8.7,6.64l10.7,18.53h-5.07l-10.55-18.19h-8v18.19Zm4.38-22.57h10.11a8.17,8.17,0,0,0,4.24-1.14,8.95,8.95,0,0,0,3.07-12,8.45,8.45,0,0,0-3.07-3.1,8.17,8.17,0,0,0-4.24-1.14H407.06Z"/><path class="cls-1" d="M463.87,1058.52a14.55,14.55,0,0,1-7.87-2.22,16.47,16.47,0,0,1-5.67-6,16.66,16.66,0,0,1-2.11-8.28,16.78,16.78,0,0,1,4.59-11.69,15.61,15.61,0,0,1,5-3.56,14.69,14.69,0,0,1,6.07-1.28,14.53,14.53,0,0,1,7.87,2.22,16.45,16.45,0,0,1,5.67,6,17.41,17.41,0,0,1,.89,14.71,16.84,16.84,0,0,1-3.36,5.25,15.81,15.81,0,0,1-5,3.55A14.68,14.68,0,0,1,463.87,1058.52Zm0-4.38a10.23,10.23,0,0,0,5.75-1.68,12,12,0,0,0,4-4.42,12.31,12.31,0,0,0,1.49-6,12.54,12.54,0,0,0-1.5-6.06,12,12,0,0,0-4.05-4.43,10.67,10.67,0,0,0-11.46,0,12,12,0,0,0-4,4.43,12.51,12.51,0,0,0-1.49,6,12.26,12.26,0,0,0,1.54,6.12,12,12,0,0,0,4.1,4.35A10.42,10.42,0,0,0,463.87,1054.14Z"/><path class="cls-1" d="M502.06,1073.36h-4.38v-46.95h4.38v5.85a13.37,13.37,0,0,1,4.45-4.82,11.92,11.92,0,0,1,6.69-1.85,16,16,0,0,1,6.41,1.29,16.41,16.41,0,0,1,5.24,3.55,17,17,0,0,1,3.54,5.24,16,16,0,0,1,1.28,6.39,16.23,16.23,0,0,1-1.28,6.41,16.89,16.89,0,0,1-3.54,5.28,16.58,16.58,0,0,1-5.24,3.55,16,16,0,0,1-6.41,1.28,11.92,11.92,0,0,1-6.69-1.84,13.37,13.37,0,0,1-4.45-4.82Zm11.11-43.51a10,10,0,0,0-5.71,1.64,10.85,10.85,0,0,0-3.74,4.4,14.09,14.09,0,0,0-1.31,6.17,14.42,14.42,0,0,0,1.29,6.13,10.83,10.83,0,0,0,3.73,4.45,10,10,0,0,0,5.74,1.66,11.6,11.6,0,0,0,6-1.63,12.61,12.61,0,0,0,4.4-4.4,12.44,12.44,0,0,0,0-12.33,12.56,12.56,0,0,0-4.35-4.43A11.43,11.43,0,0,0,513.17,1029.85Z"/><path class="cls-1" d="M573.55,1026.41h4.39v31.3h-4.39l-.15-5.82a12.57,12.57,0,0,1-4.29,4.8,11.61,11.61,0,0,1-6.57,1.83,16,16,0,0,1-6.45-1.3,16.81,16.81,0,0,1-8.86-8.87,16.76,16.76,0,0,1,0-12.8,16.59,16.59,0,0,1,3.51-5.23,16.16,16.16,0,0,1,5.2-3.52,15.8,15.8,0,0,1,6.33-1.27,12.41,12.41,0,0,1,6.83,1.86,13.94,13.94,0,0,1,4.63,4.87Zm-11.11,27.85a10,10,0,0,0,5.76-1.64,10.61,10.61,0,0,0,3.71-4.43,14.27,14.27,0,0,0,1.3-6.13,14.43,14.43,0,0,0-1.31-6.22,10.84,10.84,0,0,0-3.73-4.4,10,10,0,0,0-5.73-1.62,11.56,11.56,0,0,0-6.05,1.64,12.26,12.26,0,0,0-4.36,4.43,12.14,12.14,0,0,0-1.61,6.17,11.78,11.78,0,0,0,1.66,6.18,12.53,12.53,0,0,0,4.4,4.4A11.48,11.48,0,0,0,562.44,1054.26Z"/><path class="cls-1" d="M645.7,1026.41h4.64l-17.13,46.95h-4.66l5.7-15.65L623,1026.41h4.79l8.64,25.26Z"/><path class="cls-1" d="M722.39,1026.41h4.39v31.3h-4.39l-.15-5.82a12.73,12.73,0,0,1-4.29,4.8,11.62,11.62,0,0,1-6.58,1.83,16,16,0,0,1-6.44-1.3,16.71,16.71,0,0,1-5.29-3.58,16.47,16.47,0,0,1-3.57-5.29,16.64,16.64,0,0,1,0-12.8,16.59,16.59,0,0,1,3.51-5.23,16.22,16.22,0,0,1,5.19-3.52,15.89,15.89,0,0,1,6.34-1.27,12.41,12.41,0,0,1,6.83,1.86,13.94,13.94,0,0,1,4.63,4.87Zm-11.11,27.85a10,10,0,0,0,5.76-1.64,10.68,10.68,0,0,0,3.71-4.43,15.21,15.21,0,0,0,0-12.35,10.74,10.74,0,0,0-3.72-4.4,10,10,0,0,0-5.73-1.62,11.62,11.62,0,0,0-6.06,1.64,12.31,12.31,0,0,0-4.35,4.43,12.14,12.14,0,0,0-1.61,6.17,11.78,11.78,0,0,0,1.66,6.18,12.53,12.53,0,0,0,4.4,4.4A11.48,11.48,0,0,0,711.28,1054.26Z"/><path class="cls-1" d="M767.91,1049.85l3.91,2.13a16,16,0,0,1-5.4,4.76,15,15,0,0,1-15-.44,16.59,16.59,0,0,1-7.78-14.24,16.84,16.84,0,0,1,4.58-11.69,15.65,15.65,0,0,1,5-3.56,15,15,0,0,1,13.16.5,15.85,15.85,0,0,1,5.4,4.79l-3.91,2.1A11.11,11.11,0,0,0,764,1031a10.56,10.56,0,0,0-4.66-1.11,10.23,10.23,0,0,0-5.73,1.68,11.92,11.92,0,0,0-4.05,4.43,12.51,12.51,0,0,0-1.49,6,12.34,12.34,0,0,0,1.52,6,12.08,12.08,0,0,0,4.08,4.4,10.34,10.34,0,0,0,5.67,1.64,10.21,10.21,0,0,0,4.82-1.19A11.73,11.73,0,0,0,767.91,1049.85Z"/><path class="cls-1" d="M812.32,1049.85l3.91,2.13a15.85,15.85,0,0,1-5.39,4.76,15.06,15.06,0,0,1-15-.44,16.65,16.65,0,0,1-7.78-14.24,16.9,16.9,0,0,1,4.59-11.69,15.61,15.61,0,0,1,5-3.56,15,15,0,0,1,13.17.5,15.73,15.73,0,0,1,5.39,4.79l-3.91,2.1a11.08,11.08,0,0,0-3.91-3.18,10.56,10.56,0,0,0-4.66-1.11,10.23,10.23,0,0,0-5.73,1.68A12,12,0,0,0,794,1036a12.5,12.5,0,0,0-1.48,6,12.33,12.33,0,0,0,1.51,6,12.19,12.19,0,0,0,4.09,4.4,10.34,10.34,0,0,0,5.67,1.64,10.24,10.24,0,0,0,4.82-1.19A11.59,11.59,0,0,0,812.32,1049.85Z"/><path class="cls-1" d="M848.16,1058.52a14.55,14.55,0,0,1-7.87-2.22,16.47,16.47,0,0,1-5.67-6,16.66,16.66,0,0,1-2.11-8.28,16.78,16.78,0,0,1,4.59-11.69,15.61,15.61,0,0,1,5-3.56,14.94,14.94,0,0,1,17.51,4,16.83,16.83,0,0,1,3.2,5.79,20,20,0,0,1,.89,7.17H837.14A12.62,12.62,0,0,0,839,1049a11.28,11.28,0,0,0,3.88,3.71,10.59,10.59,0,0,0,5.24,1.39,10.14,10.14,0,0,0,5.65-1.63,12,12,0,0,0,4.06-4.47l4.44,1a16.48,16.48,0,0,1-5.66,6.81A14.52,14.52,0,0,1,848.16,1058.52ZM837,1040.18h22.25a11.32,11.32,0,0,0-1.76-5.34,12,12,0,0,0-4-3.88,10.59,10.59,0,0,0-10.68,0,11.51,11.51,0,0,0-3.94,3.85A12.63,12.63,0,0,0,837,1040.18Z"/><path class="cls-1" d="M891.55,1058.3a15.65,15.65,0,0,1-5-.94,13.78,13.78,0,0,1-4.26-2.38,8.66,8.66,0,0,1-2.6-3.41l3.79-1.63a5.35,5.35,0,0,0,1.86,2.24,11.54,11.54,0,0,0,3.12,1.63,10.41,10.41,0,0,0,3.47.61,10,10,0,0,0,3.57-.63,6.59,6.59,0,0,0,2.71-1.8,4,4,0,0,0,1-2.76,3.41,3.41,0,0,0-1.13-2.71,8.28,8.28,0,0,0-2.85-1.57q-1.72-.57-3.54-1.11a43.67,43.67,0,0,1-5.85-2,10.51,10.51,0,0,1-4-2.8,6.65,6.65,0,0,1-1.42-4.4,7.79,7.79,0,0,1,1.61-4.93,10.63,10.63,0,0,1,4.22-3.23,13.87,13.87,0,0,1,5.59-1.14,14.67,14.67,0,0,1,7,1.66,10.39,10.39,0,0,1,4.55,4.41l-3.54,2.1a5.63,5.63,0,0,0-1.78-2.22,9.42,9.42,0,0,0-2.77-1.47,10.06,10.06,0,0,0-3.15-.57,10.75,10.75,0,0,0-3.72.58,6.55,6.55,0,0,0-2.77,1.8,4.27,4.27,0,0,0-1.05,2.91,3.28,3.28,0,0,0,1,2.62,7.9,7.9,0,0,0,2.8,1.44c1.18.36,2.51.79,4,1.27a45.6,45.6,0,0,1,5.36,2.06,12.15,12.15,0,0,1,4,2.88,6.2,6.2,0,0,1,1.5,4.35,7.65,7.65,0,0,1-1.69,4.92,10.8,10.8,0,0,1-4.38,3.2A13.74,13.74,0,0,1,891.55,1058.3Z"/><path class="cls-1" d="M935.06,1058.52a14.59,14.59,0,0,1-7.88-2.22,16.65,16.65,0,0,1-7.78-14.24,16.9,16.9,0,0,1,4.59-11.69,15.61,15.61,0,0,1,5-3.56,14.73,14.73,0,0,1,6.08-1.28,14.58,14.58,0,0,1,7.87,2.22,16.42,16.42,0,0,1,5.66,6,17.37,17.37,0,0,1,.9,14.71,17.05,17.05,0,0,1-3.37,5.25,15.81,15.81,0,0,1-5,3.55A14.63,14.63,0,0,1,935.06,1058.52Zm0-4.38a10.22,10.22,0,0,0,5.74-1.68,12,12,0,0,0,4-4.42,12.41,12.41,0,0,0,1.48-6,12.54,12.54,0,0,0-1.5-6.06,12,12,0,0,0-4.05-4.43,10.67,10.67,0,0,0-11.46,0,12,12,0,0,0-4,4.43,12.5,12.5,0,0,0-1.48,6,12.35,12.35,0,0,0,1.53,6.12,12,12,0,0,0,4.1,4.35A10.43,10.43,0,0,0,935.06,1054.14Z"/><path class="cls-1" d="M968.86,1057.71v-31.3h4.38v4.32a12.09,12.09,0,0,1,4.32-3.79,12.21,12.21,0,0,1,5.79-1.41,13.21,13.21,0,0,1,3.51.47l-1.78,4.35a8.77,8.77,0,0,0-2.57-.41,9,9,0,0,0-4.65,1.25,9.54,9.54,0,0,0-3.36,3.35,8.91,8.91,0,0,0-1.26,4.67v18.5Z"/><path class="cls-1" d="M1006,1020.93a2.52,2.52,0,0,1-1.8-.71,2.5,2.5,0,0,1,0-3.53,2.52,2.52,0,0,1,1.8-.71,2.47,2.47,0,0,1,1.77.71,2.35,2.35,0,0,1,.74,1.76,2.37,2.37,0,0,1-.72,1.77A2.47,2.47,0,0,1,1006,1020.93Zm-2.22,5.48h4.38v31.3h-4.38Z"/><path class="cls-1" d="M1042,1058.52a14.55,14.55,0,0,1-7.87-2.22,16.59,16.59,0,0,1-7.78-14.24,17,17,0,0,1,1.22-6.44,16.73,16.73,0,0,1,3.36-5.25,15.65,15.65,0,0,1,5-3.56,15,15,0,0,1,13.94.94,16.45,16.45,0,0,1,5.67,6,17.41,17.41,0,0,1,.89,14.71,16.87,16.87,0,0,1-3.37,5.25,15.65,15.65,0,0,1-5,3.55A14.68,14.68,0,0,1,1042,1058.52Zm0-4.38a10.19,10.19,0,0,0,5.74-1.68,12,12,0,0,0,4-4.42,12.87,12.87,0,0,0,0-12,12.12,12.12,0,0,0-4.06-4.43,10.65,10.65,0,0,0-11.45,0,11.89,11.89,0,0,0-4,4.43,12.51,12.51,0,0,0-1.49,6,12.35,12.35,0,0,0,1.53,6.12,12,12,0,0,0,4.11,4.35A10.39,10.39,0,0,0,1042,1054.14Z"/><path class="cls-1" d="M1085.43,1058.3a15.7,15.7,0,0,1-5-.94,13.78,13.78,0,0,1-4.26-2.38,8.75,8.75,0,0,1-2.6-3.41l3.79-1.63a5.51,5.51,0,0,0,1.86,2.24,11.54,11.54,0,0,0,3.12,1.63,10.45,10.45,0,0,0,3.47.61,9.93,9.93,0,0,0,3.57-.63,6.59,6.59,0,0,0,2.71-1.8,4,4,0,0,0,1.05-2.76,3.41,3.41,0,0,0-1.13-2.71,8.28,8.28,0,0,0-2.85-1.57c-1.14-.38-2.32-.75-3.53-1.11a43.36,43.36,0,0,1-5.86-2,10.51,10.51,0,0,1-4-2.8,6.65,6.65,0,0,1-1.42-4.4,7.84,7.84,0,0,1,1.61-4.93,10.66,10.66,0,0,1,4.23-3.23,13.79,13.79,0,0,1,5.58-1.14,14.67,14.67,0,0,1,7,1.66,10.34,10.34,0,0,1,4.55,4.41l-3.53,2.1a5.66,5.66,0,0,0-1.79-2.22,9.42,9.42,0,0,0-2.77-1.47,10.05,10.05,0,0,0-3.14-.57,10.77,10.77,0,0,0-3.73.58,6.55,6.55,0,0,0-2.77,1.8,4.27,4.27,0,0,0-1,2.91,3.31,3.31,0,0,0,1,2.62,8,8,0,0,0,2.81,1.44c1.17.36,2.51.79,4,1.27a45.43,45.43,0,0,1,5.35,2.06,12.15,12.15,0,0,1,4,2.88,6.2,6.2,0,0,1,1.5,4.35,7.59,7.59,0,0,1-1.69,4.92,10.8,10.8,0,0,1-4.38,3.2A13.74,13.74,0,0,1,1085.43,1058.3Z"/><path class="cls-1" d="M715.49,697.48l-.43-.22c-2.66-1.55-5.15-3.2-7.64-4.93A147.44,147.44,0,0,1,693.29,681a144.43,144.43,0,0,1-12.59-13,70.87,70.87,0,0,1-5.58-7.24,17.36,17.36,0,0,1-3-8.68c2.21,5.7,7,9.19,11.29,13.36s8.69,8.1,13.11,12,8.81,7.94,13.23,11.93c2.19,1.91,4.35,3.93,6.53,5.81.15-.46.31-.93.44-1.39q2.09-7.17,4.15-14.35a68.46,68.46,0,0,1-13.07-10.4c-4.74-4.78-9-10-13.18-15.13-8.42-10.36-16.22-21.22-23.61-32.33S656.83,599,650.61,587.17A348.32,348.32,0,0,1,634,550.82q9.78,17.43,19.88,34.54c6.84,11.36,13.79,22.63,21.1,33.67s14.83,21.94,22.58,32.69c3.93,5.34,7.74,10.78,12,15.82A71.93,71.93,0,0,0,721,679q2.67-9.24,5.31-18.49a98.45,98.45,0,0,1-11.25-10.55,120.58,120.58,0,0,1-21.61-33.08,94.27,94.27,0,0,1-6.13-18.79c3.18,5.78,6.23,11.51,9.45,17.13s6.54,11.13,10.09,16.5,7.22,10.67,11,15.89c2.86,3.87,5.82,7.69,8.8,11.54q2.87-10,5.67-20c-6.17-8.81-11.84-18-17.1-27.34-5.91-10.47-11.24-21.25-16.2-32.19s-9.35-22.15-13.23-33.52c-3.38-9.87-6.39-19.87-8.81-30-9.18-1.31-17.29-9.16-17.29-9.16a4.18,4.18,0,0,0-5.57,3.88l-.51,35.17a6.85,6.85,0,0,1-4.38,6.48c-7,2.41-10.36-10.7-17.28-9.66a185.8,185.8,0,0,0,12.49,89,32.29,32.29,0,0,0-19.14-1.45,175.12,175.12,0,0,0,37.23,40.59c15.94,12.67,32.92,23.7,51.77,29.64C714.74,699.53,715.13,698.5,715.49,697.48Zm-44.75-136h.07a2.62,2.62,0,0,1,1.51.9,22.78,22.78,0,0,1,4.5,6.25c.53,1.1.78,2.24,1.3,3.34.62,1.33,1.18,2.68,1.68,4.06q.51,1.41.93,2.85c.2.67.5,1.85-.64,1.1a12.63,12.63,0,0,1-3.88-4.57c-1-1.77-1.78-3.63-2.85-5.34-.75-1.19-1.63-2.3-2.35-3.51C670.53,565.72,668.45,561.32,670.74,561.44Z"/><path class="cls-1" d="M867,580.77c-4,.75-7.93.88-9.12-3.21-2-6.76,3.42-12.61,7.64-17.12,3.17-3.37,12.45-20.47,7.88-21.17-5.32-.81-18.22,5.12-23.13,1.69-4.34-3.05-1.58-10.37.07-14.06,2.16-4.85,2.31-12.67-3-13.24s-5.61,3.09-9-1.4c-1.85-2.46-.18-13.28-.23-16.53a3.52,3.52,0,0,0-.4-1.93,2.92,2.92,0,0,0-2.12-1.06c-3.54-.45-6.91,1.42-10.35,2.38-8.1,2.26-8-2.62-10.58-7.92-1.69-3.46-8.09-1.89-11.9-2.36.24-3.84,2.36-8.12,0-9.82s-5.34-2.63-7.08-4.95c-1.5-2-1.75-4.65-1.77-7.15-.13-11.5,3.06-24-3-33.83a4.6,4.6,0,0,0-2.83-2.41c-1.84-.32-3.36,1.34-4.44,2.86a109.64,109.64,0,0,0-12.93,23.94c-3.11,8-2.5,8.59-9.94,11.8-2.3,1-7.34,6.75-10.91,10.72-3.79-2-7-7.36-10.58-3.73-3.25,3.3-4.38,9.57-9,9.93-5.91.47-8.5-9.87-14.37-9.08-5.69,5.72-3.88,18.73-11.89,19.71-6.38.79-12.5-8.39-17.76-4.69-1.95,7-.93,14-2.89,21-.36,1.33-2.6,7.07-4,7.07-.57,0-1.14,0-1.7-.08,3.81,9.57,7.58,19.12,11.46,28.6,4.56,11,9.19,22,14.1,32.89s9.94,21.67,15.13,32.41c4.59,9.45,9.33,18.84,14,28.28q2.73-9.72,5.38-19.46c-1.37-2.54-2.67-5.12-4-7.68-2.64-5.4-5.19-10.84-7.59-16.34-4.86-11-9.31-22.11-13.63-33.3s-8.29-22.5-12-33.91S693.44,504.75,691,493l13.22,33.41c4.41,11.12,8.67,22.3,12.95,33.47l12.61,33.6c2.94,7.72,5.73,15.5,8.77,23.19q3.69-13.53,7.2-27.1c-3.32-7.32-6.25-14.82-8.87-22.43-3.37-9.7-6.16-19.59-8.57-29.57s-4.27-20.1-5.61-30.28a242.22,242.22,0,0,1-2.29-30.68l6,30.06c2.07,10,4.19,19.92,6.57,29.8s4.86,19.75,7.49,29.59l5.9,21.33q4.2-16.38,8.06-32.85a50.3,50.3,0,0,1-3.55-5.21,78.36,78.36,0,0,1-4.47-9.28,109.34,109.34,0,0,1-8-40.15,99,99,0,0,1,1.86-20.41c-.13,3.42-.38,6.8-.3,10.2s0,6.77.27,10.14a149.65,149.65,0,0,0,7.9,39.58,82.09,82.09,0,0,0,3.79,9.38,47.79,47.79,0,0,0,2.7,5l.36-1.47c2.74-11.79,5.34-23.65,8-35.48a73.57,73.57,0,0,1-7.51-20.78,72.23,72.23,0,0,1-.89-24.7,196,196,0,0,0,3.22,24.23,178.67,178.67,0,0,0,5.42,20.19C770,486,777.4,456.44,789.35,428.42Q776,487.87,762.72,547.3l11.72-12.9c4.47-5,8.91-10,13.18-15.17s8.48-10.35,12.63-15.62l12.4-16a112.12,112.12,0,0,1-9.36,18.16A147.81,147.81,0,0,1,777.06,537,116.1,116.1,0,0,1,762.5,548.3q-1.32,5.9-2.65,11.79-2.77,12.39-5.59,24.75c5.45-6.15,11-12.19,16.6-18.17,7.26-7.8,14.61-15.49,21.77-23.34s14.28-15.71,21.21-23.76,13.62-16.31,20.29-24.69a206.62,206.62,0,0,1-17.39,27,319.69,319.69,0,0,1-20.62,24.66q-10.93,11.78-22.65,22.73-9.54,8.94-19.61,17.3c-2.71,11.83-5.5,23.65-8.45,35.43q5.91-5.79,11.87-11.51l22.14-21.23,22.23-21.13c7.43-7,14.87-14.06,22.57-20.89-6.25,8.18-13,16-19.93,23.5s-14.19,14.84-21.59,22-15.07,14-23,20.54q-7.46,6.24-15.2,12.11c-1.12,4.44-2.23,8.87-3.41,13.29q-1.29,4.8-2.62,9.58c6.53-4,13-8,19.47-12.12,9.09-5.85,18.09-11.79,26.89-18s17.49-12.63,26.07-19.2,17-13.39,25.48-20.19a240.89,240.89,0,0,1-23.13,23.06,302.1,302.1,0,0,1-53.42,37.53c-7.13,3.94-14.42,7.59-21.89,10.83q-4,14.25-8.52,28.35c-.87,2.7-1.71,5.68-2.58,8.78,9.52-4.18,18.91-8.56,28.14-13.22a337.91,337.91,0,0,0,35.12-20.44A245.17,245.17,0,0,0,822,628.5,212.07,212.07,0,0,0,848.9,598a146.67,146.67,0,0,1-24.32,33.18,193.19,193.19,0,0,1-31.79,26.39,244.77,244.77,0,0,1-36.17,19.82,258.41,258.41,0,0,1-30.11,11.26c-1,3.65-3.93,13.19-4.25,14.11a96.38,96.38,0,0,0,17,2.38c32.5,1.61,60.86-4.12,87.79-22.39a53.56,53.56,0,0,0,6.48-5.26c20.8-19.43,4.76-11.33,1.48-11.85-1.45-.23-3.05.34-4.33-.38-2.47-1.39-.82-5.15,1-7.32a301.74,301.74,0,0,0,30.17-42.57c5.72-9.77,11-21.14,9-32A3.23,3.23,0,0,0,867,580.77Zm-65.46,104.3a5.83,5.83,0,0,1-2.33,3.39,14.59,14.59,0,0,1-8.28,3.08c-2,.1-7.9,0-6.79-3.31a5.2,5.2,0,0,1,1.31-1.88c3.29-3.35,7.94-5.59,12.61-5.13.62.06.77.33,1.25.6s.85.24,1.23.54A3,3,0,0,1,801.56,685.07Zm44.35-96.2a55.51,55.51,0,0,1-4.56,6.89c-1.31,1.76-3.45,4.14-5.91,3.66-2.77-.54-1.09-4.78-.14-6.27a15.05,15.05,0,0,1,3.14-3.52,14.83,14.83,0,0,1,2-1.4,21,21,0,0,0,2.34-1.1c1.65-1.3,1.34-4.1,3.13-5.37a1.57,1.57,0,0,1,1.46-.23.84.84,0,0,1,.37.25C849.11,583.18,846.62,587.55,845.91,588.87Zm-6.78-33c-3.87,3.8-8,7.32-12.2,10.72s-8.64,6.55-13.21,9.46a107.46,107.46,0,0,1-14.27,7.88c3.88-3.86,7.95-7.39,12.06-10.86s8.29-6.83,12.46-10.2,8.44-6.62,12.77-9.81,8.68-6.38,13.32-9.29A107.46,107.46,0,0,1,839.13,555.88Z"/></g></svg>